<?xml version="1.0" encoding="iso-8859-1"?>
<!-- Generator: Adobe Illustrator 19.0.0, SVG Export Plug-In . SVG Version: 6.00 Build 0)  -->
<svg version="1.1" id="Capa_1" xmlns="http://www.w3.org/2000/svg" xmlns:xlink="http://www.w3.org/1999/xlink" x="0px" y="0px"
	 viewBox="0 0 480 480" style="enable-background:new 0 0 480 480;" xml:space="preserve">
<linearGradient id="SVGID_1_" gradientUnits="userSpaceOnUse" x1="-26.875" y1="558.075" x2="-26.875" y2="624.548" gradientTransform="matrix(8 0 0 -8 455 4941)">
	<stop  offset="0" style="stop-color:#006DF0"/>
	<stop  offset="1" style="stop-color:#00E7F0"/>
</linearGradient>
<path style="fill:url(#SVGID_1_);" d="M240,0C156.091,0.093,88.093,68.091,88,152v176c0,83.947,68.053,152,152,152
	s152-68.053,152-152V152C391.907,68.091,323.909,0.093,240,0z M376,152v40H248v-33.136c14.085-3.637,23.945-16.317,24-30.864V80
	c-0.055-14.547-9.915-27.227-24-30.864V16.408C319.8,20.667,375.881,80.074,376,152z M240,64c8.837,0,16,7.163,16,16v48
	c0,8.837-7.163,16-16,16c-8.837,0-16-7.163-16-16V80C224,71.163,231.163,64,240,64z M232,16.408v32.728
	C217.915,52.773,208.055,65.453,208,80v48c0.055,14.547,9.915,27.227,24,30.864V192H104v-40C104.119,80.074,160.2,20.667,232,16.408
	z M240,464c-75.076-0.084-135.916-60.924-136-136V208h272v120C375.916,403.076,315.076,463.916,240,464z"/>
<g>
</g>
<g>
</g>
<g>
</g>
<g>
</g>
<g>
</g>
<g>
</g>
<g>
</g>
<g>
</g>
<g>
</g>
<g>
</g>
<g>
</g>
<g>
</g>
<g>
</g>
<g>
</g>
<g>
</g>
</svg>
